<svg xmlns="http://www.w3.org/2000/svg" xmlns:oryx="http://oryx-editor.org" id="_FFF20796-34BD-498C-8C7B-8DEA37DEC1BA" width="599.21875" height="365" xmlns:xlink="http://www.w3.org/1999/xlink" xmlns:svg="http://www.w3.org/2000/svg"><defs><marker id="_EED0BA32-20E7-4D21-81EB-5DC6D630AAEDstart" refX="1" refY="5" markerUnits="userSpaceOnUse" markerWidth="17" markerHeight="11" orient="auto" fill="#000000" stroke="#000000"> 	  		<path id="_EED0BA32-20E7-4D21-81EB-5DC6D630AAEDconditional" d="M 0 5 L 8 0 L 16 5 L 8 10 L 0 5" fill="white" stroke="#000000" stroke-width="1" display="none"/> 			<path id="_EED0BA32-20E7-4D21-81EB-5DC6D630AAEDdefault" d="M 5 0 L 11 10" fill="white" stroke="#000000" stroke-width="1" display="none"/> 	  	</marker><marker id="_EED0BA32-20E7-4D21-81EB-5DC6D630AAEDend" refX="15" refY="6" markerUnits="userSpaceOnUse" markerWidth="15" markerHeight="12" orient="auto" fill="#000000" stroke="#000000"> 	  		<path id="_EED0BA32-20E7-4D21-81EB-5DC6D630AAEDframe2" d="M 0 1 L 15 6 L 0 11z" fill="#000000" stroke="#000000" stroke-linejoin="round" stroke-width="2"/> 	  	</marker><marker id="_D3D71428-88B4-4467-BE08-35D5D4FA0946start" refX="1" refY="5" markerUnits="userSpaceOnUse" markerWidth="17" markerHeight="11" orient="auto" fill="#000000" stroke="#000000"> 	  		<path id="_D3D71428-88B4-4467-BE08-35D5D4FA0946conditional" d="M 0 5 L 8 0 L 16 5 L 8 10 L 0 5" fill="white" stroke="#000000" stroke-width="1" display="none"/> 			<path id="_D3D71428-88B4-4467-BE08-35D5D4FA0946default" d="M 5 0 L 11 10" fill="white" stroke="#000000" stroke-width="1" display="none"/> 	  	</marker><marker id="_D3D71428-88B4-4467-BE08-35D5D4FA0946end" refX="15" refY="6" markerUnits="userSpaceOnUse" markerWidth="15" markerHeight="12" orient="auto" fill="#000000" stroke="#000000"> 	  		<path id="_D3D71428-88B4-4467-BE08-35D5D4FA0946frame2" d="M 0 1 L 15 6 L 0 11z" fill="#000000" stroke="#000000" stroke-linejoin="round" stroke-width="2"/> 	  	</marker><marker id="_FD441A57-C853-45F4-A319-DAF67901AABFstart" refX="1" refY="5" markerUnits="userSpaceOnUse" markerWidth="17" markerHeight="11" orient="auto" fill="#000000" stroke="#000000"> 	  		<path id="_FD441A57-C853-45F4-A319-DAF67901AABFconditional" d="M 0 5 L 8 0 L 16 5 L 8 10 L 0 5" fill="white" stroke="#000000" stroke-width="1" display="none"/> 			<path id="_FD441A57-C853-45F4-A319-DAF67901AABFdefault" d="M 5 0 L 11 10" fill="white" stroke="#000000" stroke-width="1" display="none"/> 	  	</marker><marker id="_FD441A57-C853-45F4-A319-DAF67901AABFend" refX="15" refY="6" markerUnits="userSpaceOnUse" markerWidth="15" markerHeight="12" orient="auto" fill="#000000" stroke="#000000"> 	  		<path id="_FD441A57-C853-45F4-A319-DAF67901AABFframe2" d="M 0 1 L 15 6 L 0 11z" fill="#000000" stroke="#000000" stroke-linejoin="round" stroke-width="2"/> 	  	</marker><marker id="_0F255164-B563-4703-AF27-1B55CDAC9908start" refX="1" refY="5" markerUnits="userSpaceOnUse" markerWidth="17" markerHeight="11" orient="auto" fill="#000000" stroke="#000000"> 	  		<path id="_0F255164-B563-4703-AF27-1B55CDAC9908conditional" d="M 0 5 L 8 0 L 16 5 L 8 10 L 0 5" fill="white" stroke="#000000" stroke-width="1" display="none"/> 			<path id="_0F255164-B563-4703-AF27-1B55CDAC9908default" d="M 5 0 L 11 10" fill="white" stroke="#000000" stroke-width="1" display="none"/> 	  	</marker><marker id="_0F255164-B563-4703-AF27-1B55CDAC9908end" refX="15" refY="6" markerUnits="userSpaceOnUse" markerWidth="15" markerHeight="12" orient="auto" fill="#000000" stroke="#000000"> 	  		<path id="_0F255164-B563-4703-AF27-1B55CDAC9908frame2" d="M 0 1 L 15 6 L 0 11z" fill="#000000" stroke="#000000" stroke-linejoin="round" stroke-width="2"/> 	  	</marker></defs><g stroke="none" font-family="Verdana, sans-serif" font-size-adjust="none" font-style="normal" font-variant="normal" font-weight="normal" line-heigth="normal" font-size="12"><g class="stencils" transform="translate(15, 16)"><g class="me"/><g class="children"><g id="_C5CA6BA5-1F5D-4E6E-8B25-C9B74AAE3866" bpmn2nodeid="processStartEvent"><g class="stencils" transform="translate(120, 165)"><g class="me"><g pointer-events="fill" id="_C5CA6BA5-1F5D-4E6E-8B25-C9B74AAE3866">        <defs id="_C5CA6BA5-1F5D-4E6E-8B25-C9B74AAE3866__C5CA6BA5-1F5D-4E6E-8B25-C9B74AAE3866_5"> 		<radialGradient id="_C5CA6BA5-1F5D-4E6E-8B25-C9B74AAE3866background" cx="10%" cy="10%" r="100%" fx="10%" fy="10%"> 			<stop offset="0%" stop-color="#ffffff" stop-opacity="1" id="_C5CA6BA5-1F5D-4E6E-8B25-C9B74AAE3866__C5CA6BA5-1F5D-4E6E-8B25-C9B74AAE3866_6"/> 			<stop id="_C5CA6BA5-1F5D-4E6E-8B25-C9B74AAE3866fill_el" offset="100%" stop-color="#9acd32" stop-opacity="1"/> 		</radialGradient> 	</defs> 	     <circle id="_C5CA6BA5-1F5D-4E6E-8B25-C9B74AAE3866bg_frame" cx="15" cy="15" r="15" stroke="#000000" fill="url(#_C5CA6BA5-1F5D-4E6E-8B25-C9B74AAE3866background) white" stroke-width="1" style="stroke-dasharray: 5.5, 3"/>      <circle id="_C5CA6BA5-1F5D-4E6E-8B25-C9B74AAE3866frame" cx="15" cy="15" r="15" stroke="#000000" fill="none" stroke-width="1" display="inherit"/>  	<text font-size="11" id="_C5CA6BA5-1F5D-4E6E-8B25-C9B74AAE3866text_name" x="15" y="32" oryx:align="top center" stroke="black" stroke-width="0pt" letter-spacing="-0.01px" fill="#000000" text-anchor="middle" transform="rotate(0 15 32)" visibility="inherit" oryx:fontSize="11"/>   </g></g><g class="children" style="overflow:hidden"/><g class="edge"/></g><g class="controls"><g class="dockers"/><g class="magnets" transform="translate(120, 165)"><g pointer-events="all" display="none" transform="translate(7, 7)"><circle cx="8" cy="8" r="4" stroke="none" fill="red" fill-opacity="0.3"/></g></g></g></g><g id="_CAF3D242-3EA7-4FA0-A6D8-2FB149FFE782" bpmn2nodeid="_BC65E1F6-8B79-45A1-AA8F-A2047E4C71E6"><g class="stencils" transform="translate(195, 140)"><g class="me"><g pointer-events="fill" oryx:minimumSize="50 40" id="_CAF3D242-3EA7-4FA0-A6D8-2FB149FFE782">   	<defs id="_CAF3D242-3EA7-4FA0-A6D8-2FB149FFE782__CAF3D242-3EA7-4FA0-A6D8-2FB149FFE782_17"> 		<radialGradient id="_CAF3D242-3EA7-4FA0-A6D8-2FB149FFE782background" cx="10%" cy="10%" r="100%" fx="10%" fy="10%"> 			<stop offset="0%" stop-color="#ffffff" stop-opacity="1" id="_CAF3D242-3EA7-4FA0-A6D8-2FB149FFE782__CAF3D242-3EA7-4FA0-A6D8-2FB149FFE782_18"/> 			<stop id="_CAF3D242-3EA7-4FA0-A6D8-2FB149FFE782fill_el" offset="100%" stop-color="#fafad2" stop-opacity="1"/> 		</radialGradient> 		<radialGradient id="_CAF3D242-3EA7-4FA0-A6D8-2FB149FFE782borderbackground" cx="10%" cy="10%" r="100%" fx="10%" fy="10%"> 			<stop offset="0%" stop-color="#ffffff" stop-opacity="1" id="_CAF3D242-3EA7-4FA0-A6D8-2FB149FFE782__CAF3D242-3EA7-4FA0-A6D8-2FB149FFE782_19"/> 			<stop id="_CAF3D242-3EA7-4FA0-A6D8-2FB149FFE782fill_border" offset="100%" stop-color="#000000" stop-opacity="1" stroke="#000000"/> 		</radialGradient> 	</defs> 	 	<rect id="_CAF3D242-3EA7-4FA0-A6D8-2FB149FFE782text_frame" oryx:anchors="bottom top right left" x="1" y="1" width="94" height="79" rx="10" ry="10" stroke="none" stroke-width="0" fill="none"/> 	<rect id="_CAF3D242-3EA7-4FA0-A6D8-2FB149FFE782bg_frame" oryx:resize="vertical horizontal" x="0" y="0" width="100" height="80" rx="10" ry="10" stroke="#000000" stroke-width="1" fill="url(#_CAF3D242-3EA7-4FA0-A6D8-2FB149FFE782background) #ffffcc"/> 		<text font-size="12" id="_CAF3D242-3EA7-4FA0-A6D8-2FB149FFE782text_name" x="50" y="40" oryx:align="middle center" oryx:fittoelem="text_frame" stroke="black" text-anchor="middle" stroke-width="0pt" letter-spacing="-0.01px" fill="#000000" transform="rotate(0 50 40)" visibility="inherit" oryx:fontSize="12"><tspan x="50" y="40" dy="-1">Prepare New </tspan><tspan x="50" y="40" dy="11">Hire Onboarding</tspan></text>     <g id="_CAF3D242-3EA7-4FA0-A6D8-2FB149FFE782manualTask" transform="scale(0.7,0.7) translate(8,8)" display="none">     	<path oryx:anchors="top left" id="_CAF3D242-3EA7-4FA0-A6D8-2FB149FFE782frame" style="opacity:1;fill:none;fill-opacity:1;stroke-width:1" d="M0.5,3.751l4.083-3.25c0,0,11.166,0.083,12.083,0.083s-2.417,2.917-1.5,2.917     s11.667,0,12.584,0c1.166,1.708-0.168,3.167-0.834,3.667s0.875,1.917-1,4.417c-0.75,0.25,0.75,1.875-1.333,3.333     c-1.167,0.583,0.583,1.542-1.25,2.833c-1.167,0-20.833,0.083-20.833,0.083l-2-1.333V3.751z" stroke="#000000"/> 		<path id="_CAF3D242-3EA7-4FA0-A6D8-2FB149FFE782frame2" oryx:anchors="top left" style="opacity:1;fill:none;stroke-width:2" d="M 13.5 7 L 27 7" stroke="#000000"/> 		<path id="_CAF3D242-3EA7-4FA0-A6D8-2FB149FFE782frame3" oryx:anchors="top left" style="opacity:1;fill:none;stroke-width:2" d="M 13.5 11 L 26 11" stroke="#000000"/> 		<path id="_CAF3D242-3EA7-4FA0-A6D8-2FB149FFE782frame4" oryx:anchors="top left" style="opacity:1;fill:none;stroke-width:1.5" d="M 14 14.5 L 25 14.5" stroke="#000000"/> 		<path id="_CAF3D242-3EA7-4FA0-A6D8-2FB149FFE782frame5" oryx:anchors="top left" style="opacity:1;fill:none;stroke-width:1.5" d="M 8.2 3.1 L 15 3.1" stroke="#000000"/> 	</g> 	 	<g id="_CAF3D242-3EA7-4FA0-A6D8-2FB149FFE782businessRuleTask" transform="scale(0.7,0.7) translate(8,8)" display="none"> 		<rect id="_CAF3D242-3EA7-4FA0-A6D8-2FB149FFE782frame6" oryx:anchors="top left" x="0" y="0" width="22" height="4" style="opacity:1;fill:#B3B1B3;fill-opacity:1;" stroke="#000000"/> 		<rect id="_CAF3D242-3EA7-4FA0-A6D8-2FB149FFE782frame7" oryx:anchors="top left" x="0" y="4" style="opacity:1;fill:none;" width="22" height="12" stroke="#000000"/> 		<path id="_CAF3D242-3EA7-4FA0-A6D8-2FB149FFE782frame8" oryx:anchors="top left" style="opacity:1;fill:none;" d="M 0 10 L 22 10" stroke="#000000"/> 		<path id="_CAF3D242-3EA7-4FA0-A6D8-2FB149FFE782frame9" oryx:anchors="top left" style="opacity:1; fill:none;" d="M 7 4 L 7 16" stroke="#000000"/> 	</g> 	 	<g id="_CAF3D242-3EA7-4FA0-A6D8-2FB149FFE782scriptTask" transform="scale(0.7,0.7) translate(8,8)" display="none"> 		<path oryx:anchors="top left" id="_CAF3D242-3EA7-4FA0-A6D8-2FB149FFE782frame10" style="opacity:1;fill:none;" stroke="#000000" d="M6.402,0.5h14.5c0,0-5.833,2.833-5.833,5.583s4.417,6,4.417,9.167    s-4.167,5.083-4.167,5.083H0.235c0,0,5-2.667,5-5s-4.583-6.75-4.583-9.25S6.402,0.5,6.402,0.5z"/> 		<path oryx:anchors="top left" id="_CAF3D242-3EA7-4FA0-A6D8-2FB149FFE782frame11" style="opacity:1;fill:none;stroke-width:1.5" d="M 3.5 4.5 L 13.5 4.5" stroke="#000000"/> 		<path oryx:anchors="top left" id="_CAF3D242-3EA7-4FA0-A6D8-2FB149FFE782frame12" style="opacity:1;fill:none;stroke-width:1.5" d="M 3.8 8.5 L 13.8 8.5" stroke="#000000"/> 		<path oryx:anchors="top left" id="_CAF3D242-3EA7-4FA0-A6D8-2FB149FFE782frame13" style="opacity:1;fill:none;stroke-width:1.5" d="M 6.3 12.5 L 16.3 12.5" stroke="#000000"/> 		<path oryx:anchors="top left" id="_CAF3D242-3EA7-4FA0-A6D8-2FB149FFE782frame14" style="opacity:1;fill:none;stroke-width:1.5" d="M 6.5 16.5 L 16.5 16.5" stroke="#000000"/> 	</g> 	 	<g id="_CAF3D242-3EA7-4FA0-A6D8-2FB149FFE782userTask" transform="scale(0.7,0.7) translate(8,8)" display="inherit"> 		<path id="_CAF3D242-3EA7-4FA0-A6D8-2FB149FFE782frame15" oryx:anchors="top left" style="opacity:1;fill:#F4F6F7" stroke="#000000" d="M0.585,24.167h24.083v-7.833c0,0-2.333-3.917-7.083-5.167h-9.25    c-4.417,1.333-7.833,5.75-7.833,5.75L0.585,24.167z"/> 		<path id="_CAF3D242-3EA7-4FA0-A6D8-2FB149FFE782frame16" oryx:anchors="top left" style="opacity:1;fill:none" d="M 6 20 L 6 24" stroke="#000000"/> 		<path id="_CAF3D242-3EA7-4FA0-A6D8-2FB149FFE782frame17" oryx:anchors="top left" style="opacity:1;fill:none" d="M 20 20 L 20 24" stroke="#000000"/> 		<circle id="_CAF3D242-3EA7-4FA0-A6D8-2FB149FFE782frame18" oryx:anchors="top left" fill="black" cx="13.002" cy="5.916" r="5.417" stroke="#000000"/> 		<path id="_CAF3D242-3EA7-4FA0-A6D8-2FB149FFE782frame19" oryx:anchors="top left" style="opacity:1;fill:#F0EFF0;" stroke="#000000" d="M8.043,7.083c0,0,2.814-2.426,5.376-1.807s4.624-0.693,4.624-0.693    c0.25,1.688,0.042,3.75-1.458,5.584c0,0,1.083,0.75,1.083,1.5s0.125,1.875-1,3s-5.5,1.25-6.75,0S8.668,12.834,8.668,12    s0.583-1.25,1.25-1.917C8.835,9.5,7.419,7.708,8.043,7.083z"/> 	</g> 	 	<g id="_CAF3D242-3EA7-4FA0-A6D8-2FB149FFE782serviceTask" transform="scale(0.7,0.7) translate(8,8)" display="none"> 		<polygon oryx:anchors="top left" id="_CAF3D242-3EA7-4FA0-A6D8-2FB149FFE782frame20" style="opacity:1;fill:#ffffff" stroke="#000000" points="15.392,5.064 17.954,2.502 20.347,4.895 17.786,7.455     18.729,9.732 22.353,9.732 22.353,13.115 18.731,13.115 17.788,15.392 20.351,17.955 17.958,20.347 15.397,17.786 13.12,18.729     13.12,22.353 9.737,22.353 9.737,18.731 7.46,17.788 4.897,20.35 2.506,17.958 5.066,15.397 4.124,13.12 0.5,13.12 0.5,9.737     4.121,9.737 5.065,7.461 2.503,4.898 4.895,2.506 7.455,5.066 9.732,4.125 9.732,0.5 13.116,0.5 13.116,4.121 "/> 		<circle oryx:anchors="top left" id="_CAF3D242-3EA7-4FA0-A6D8-2FB149FFE782frame21" style="opacity:1;fill:none" stroke="#000000" cx="11.427" cy="11.426" r="3.714"/> 		<polygon oryx:anchors="top left" id="_CAF3D242-3EA7-4FA0-A6D8-2FB149FFE782frame22" style="opacity:1;fill:#ffffff" stroke="#000000" points="21.392,11.064 23.954,8.502 26.347,10.895 23.786,13.455     24.729,15.732 28.353,15.732 28.353,19.115 24.731,19.115 23.788,21.392 26.351,23.955 23.958,26.347 21.397,23.786 19.12,24.729     19.12,28.353 15.737,28.353 15.737,24.731 13.46,23.788 10.897,26.35 8.506,23.958 11.066,21.397 10.124,19.12 6.5,19.12     6.5,15.737 10.121,15.737 11.065,13.461 8.503,10.898 10.895,8.506 13.455,11.066 15.732,10.125 15.732,6.5 19.116,6.5     19.116,10.121 "/> 		<circle oryx:anchors="top left" id="_CAF3D242-3EA7-4FA0-A6D8-2FB149FFE782frame23" style="opacity:1;fill:none;" stroke="#000000" cx="17.427" cy="17.426" r="3.714"/> 	</g> 	 	<g id="_CAF3D242-3EA7-4FA0-A6D8-2FB149FFE782sendTask" display="none"> 		<path id="_CAF3D242-3EA7-4FA0-A6D8-2FB149FFE782stframe24" oryx:anchors="left top" stroke="#FFFFFF" fill="black" stroke-width="1" d="M8,11 L8,21 L24,21 L24,11 L16,17z"/> 		<path id="_CAF3D242-3EA7-4FA0-A6D8-2FB149FFE782stframe25" oryx:anchors="left top" stroke="#FFFFFF" fill="black" stroke-width="1" d="M7,10 L16,17 L25 10z"/> 	</g> 	 	<g id="_CAF3D242-3EA7-4FA0-A6D8-2FB149FFE782receiveTask" display="none"> 		<path id="_CAF3D242-3EA7-4FA0-A6D8-2FB149FFE782frame26" oryx:anchors="left top" stroke="#000000" fill="none" stroke-width="1" d="M8,11 L8,21 L24,21 L24,11z M8,11 L16,17 L24,11"/> 	</g> 	 	<g id="_CAF3D242-3EA7-4FA0-A6D8-2FB149FFE782none" display="none"/>  	<g id="_CAF3D242-3EA7-4FA0-A6D8-2FB149FFE782sequential" display="none">         <path oryx:anchors="bottom" fill="none" stroke="#000000" stroke-width="2" d="M46,76h10M46,72h10 M46,68h10" id="_CAF3D242-3EA7-4FA0-A6D8-2FB149FFE782__CAF3D242-3EA7-4FA0-A6D8-2FB149FFE782_20"/>     </g>   </g></g><g class="children" style="overflow:hidden"/><g class="edge"/></g><g class="controls"><g class="dockers"/><g class="magnets" transform="translate(195, 140)"><g pointer-events="all" display="none" transform="translate(-7, 12)"><circle cx="8" cy="8" r="4" stroke="none" fill="red" fill-opacity="0.3"/></g><g pointer-events="all" display="none" transform="translate(-7, 32)"><circle cx="8" cy="8" r="4" stroke="none" fill="red" fill-opacity="0.3"/></g><g pointer-events="all" display="none" transform="translate(-7, 52)"><circle cx="8" cy="8" r="4" stroke="none" fill="red" fill-opacity="0.3"/></g><g pointer-events="all" display="none" transform="translate(17, 71)"><circle cx="8" cy="8" r="4" stroke="none" fill="red" fill-opacity="0.3"/></g><g pointer-events="all" display="none" transform="translate(42, 71)"><circle cx="8" cy="8" r="4" stroke="none" fill="red" fill-opacity="0.3"/></g><g pointer-events="all" display="none" transform="translate(67, 71)"><circle cx="8" cy="8" r="4" stroke="none" fill="red" fill-opacity="0.3"/></g><g pointer-events="all" display="none" transform="translate(91, 12)"><circle cx="8" cy="8" r="4" stroke="none" fill="red" fill-opacity="0.3"/></g><g pointer-events="all" display="none" transform="translate(91, 32)"><circle cx="8" cy="8" r="4" stroke="none" fill="red" fill-opacity="0.3"/></g><g pointer-events="all" display="none" transform="translate(91, 52)"><circle cx="8" cy="8" r="4" stroke="none" fill="red" fill-opacity="0.3"/></g><g pointer-events="all" display="none" transform="translate(17, -7)"><circle cx="8" cy="8" r="4" stroke="none" fill="red" fill-opacity="0.3"/></g><g pointer-events="all" display="none" transform="translate(42, -7)"><circle cx="8" cy="8" r="4" stroke="none" fill="red" fill-opacity="0.3"/></g><g pointer-events="all" display="none" transform="translate(67, -7)"><circle cx="8" cy="8" r="4" stroke="none" fill="red" fill-opacity="0.3"/></g><g pointer-events="all" display="none" transform="translate(42, 32)"><circle cx="8" cy="8" r="4" stroke="none" fill="red" fill-opacity="0.3"/></g></g></g></g><g id="_B39874C0-E367-4AF2-B21B-C61A4CBE9BFB" bpmn2nodeid="_A27A3DCF-7036-4580-926B-E3DAF85F4876"><g class="stencils" transform="translate(340, 160)"><g class="me"><g id="_B39874C0-E367-4AF2-B21B-C61A4CBE9BFB">      <defs id="_B39874C0-E367-4AF2-B21B-C61A4CBE9BFB__B39874C0-E367-4AF2-B21B-C61A4CBE9BFB_4"> 		<radialGradient id="_B39874C0-E367-4AF2-B21B-C61A4CBE9BFBbackground" cx="10%" cy="10%" r="100%" fx="10%" fy="10%"> 			<stop offset="0%" stop-color="#ffffff" stop-opacity="1" id="_B39874C0-E367-4AF2-B21B-C61A4CBE9BFB__B39874C0-E367-4AF2-B21B-C61A4CBE9BFB_5"/> 			<stop id="_B39874C0-E367-4AF2-B21B-C61A4CBE9BFBfill_el" offset="100%" stop-color="#f0e68c" stop-opacity="1"/> 		</radialGradient> 	</defs> 	     <path d=" M0 20.5  L20.5 0  L40 20.5  L20.5 40  z" id="_B39874C0-E367-4AF2-B21B-C61A4CBE9BFBbg_frame" fill="url(#_B39874C0-E367-4AF2-B21B-C61A4CBE9BFBbackground) white" style="stroke-width:1" stroke="#a67f00"/>     <path id="_B39874C0-E367-4AF2-B21B-C61A4CBE9BFBframe" d=" M11.25 20.5  L30.25 20.5  M20.5 11.25  L20.5 30.25 " style="fill:none;stroke-width:3" stroke="#a67f00"/>      	<text id="_B39874C0-E367-4AF2-B21B-C61A4CBE9BFBtext_name" x="30.5" y="30.5" oryx:align="left top" stroke-width="0pt" letter-spacing="-0.01px" fill="#000000" text-anchor="start" transform="rotate(0 30.5 30.5)" visibility="inherit" oryx:fontSize="12"/> 	   </g></g><g class="children" style="overflow:hidden"/><g class="edge"/></g><g class="controls"><g class="dockers"/><g class="magnets" transform="translate(340, 160)"><g pointer-events="all" display="none" transform="translate(12.5, 12.5)"><circle cx="8" cy="8" r="4" stroke="none" fill="red" fill-opacity="0.3"/></g></g></g></g><g id="_24A596AC-009A-43C0-BDDD-52A2EA03774F" bpmn2nodeid="_144C2ABB-8E14-4ABD-A783-C235740C597A"><g class="stencils" transform="translate(425, 75)"><g class="me"><g pointer-events="fill" oryx:minimumSize="50 40" id="_24A596AC-009A-43C0-BDDD-52A2EA03774F">   	<defs id="_24A596AC-009A-43C0-BDDD-52A2EA03774F__24A596AC-009A-43C0-BDDD-52A2EA03774F_17"> 		<radialGradient id="_24A596AC-009A-43C0-BDDD-52A2EA03774Fbackground" cx="10%" cy="10%" r="100%" fx="10%" fy="10%"> 			<stop offset="0%" stop-color="#ffffff" stop-opacity="1" id="_24A596AC-009A-43C0-BDDD-52A2EA03774F__24A596AC-009A-43C0-BDDD-52A2EA03774F_18"/> 			<stop id="_24A596AC-009A-43C0-BDDD-52A2EA03774Ffill_el" offset="100%" stop-color="#fafad2" stop-opacity="1"/> 		</radialGradient> 		<radialGradient id="_24A596AC-009A-43C0-BDDD-52A2EA03774Fborderbackground" cx="10%" cy="10%" r="100%" fx="10%" fy="10%"> 			<stop offset="0%" stop-color="#ffffff" stop-opacity="1" id="_24A596AC-009A-43C0-BDDD-52A2EA03774F__24A596AC-009A-43C0-BDDD-52A2EA03774F_19"/> 			<stop id="_24A596AC-009A-43C0-BDDD-52A2EA03774Ffill_border" offset="100%" stop-color="#000000" stop-opacity="1" stroke="#000000"/> 		</radialGradient> 	</defs> 	 	<rect id="_24A596AC-009A-43C0-BDDD-52A2EA03774Ftext_frame" oryx:anchors="bottom top right left" x="1" y="1" width="94" height="79" rx="10" ry="10" stroke="none" stroke-width="0" fill="none"/> 	<rect id="_24A596AC-009A-43C0-BDDD-52A2EA03774Fbg_frame" oryx:resize="vertical horizontal" x="0" y="0" width="100" height="80" rx="10" ry="10" stroke="#000000" stroke-width="1" fill="url(#_24A596AC-009A-43C0-BDDD-52A2EA03774Fbackground) #ffffcc"/> 		<text font-size="12" id="_24A596AC-009A-43C0-BDDD-52A2EA03774Ftext_name" x="50" y="40" oryx:align="middle center" oryx:fittoelem="text_frame" stroke="black" text-anchor="middle" stroke-width="0pt" letter-spacing="-0.01px" fill="#000000" transform="rotate(0 50 40)" visibility="inherit" oryx:fontSize="12"><tspan x="50" y="40" dy="-7">Fulfill </tspan><tspan x="50" y="40" dy="5">Equipment </tspan><tspan x="50" y="40" dy="17">Request</tspan></text>     <g id="_24A596AC-009A-43C0-BDDD-52A2EA03774FmanualTask" transform="scale(0.7,0.7) translate(8,8)" display="none">     	<path oryx:anchors="top left" id="_24A596AC-009A-43C0-BDDD-52A2EA03774Fframe" style="opacity:1;fill:none;fill-opacity:1;stroke-width:1" d="M0.5,3.751l4.083-3.25c0,0,11.166,0.083,12.083,0.083s-2.417,2.917-1.5,2.917     s11.667,0,12.584,0c1.166,1.708-0.168,3.167-0.834,3.667s0.875,1.917-1,4.417c-0.75,0.25,0.75,1.875-1.333,3.333     c-1.167,0.583,0.583,1.542-1.25,2.833c-1.167,0-20.833,0.083-20.833,0.083l-2-1.333V3.751z" stroke="#000000"/> 		<path id="_24A596AC-009A-43C0-BDDD-52A2EA03774Fframe2" oryx:anchors="top left" style="opacity:1;fill:none;stroke-width:2" d="M 13.5 7 L 27 7" stroke="#000000"/> 		<path id="_24A596AC-009A-43C0-BDDD-52A2EA03774Fframe3" oryx:anchors="top left" style="opacity:1;fill:none;stroke-width:2" d="M 13.5 11 L 26 11" stroke="#000000"/> 		<path id="_24A596AC-009A-43C0-BDDD-52A2EA03774Fframe4" oryx:anchors="top left" style="opacity:1;fill:none;stroke-width:1.5" d="M 14 14.5 L 25 14.5" stroke="#000000"/> 		<path id="_24A596AC-009A-43C0-BDDD-52A2EA03774Fframe5" oryx:anchors="top left" style="opacity:1;fill:none;stroke-width:1.5" d="M 8.2 3.1 L 15 3.1" stroke="#000000"/> 	</g> 	 	<g id="_24A596AC-009A-43C0-BDDD-52A2EA03774FbusinessRuleTask" transform="scale(0.7,0.7) translate(8,8)" display="none"> 		<rect id="_24A596AC-009A-43C0-BDDD-52A2EA03774Fframe6" oryx:anchors="top left" x="0" y="0" width="22" height="4" style="opacity:1;fill:#B3B1B3;fill-opacity:1;" stroke="#000000"/> 		<rect id="_24A596AC-009A-43C0-BDDD-52A2EA03774Fframe7" oryx:anchors="top left" x="0" y="4" style="opacity:1;fill:none;" width="22" height="12" stroke="#000000"/> 		<path id="_24A596AC-009A-43C0-BDDD-52A2EA03774Fframe8" oryx:anchors="top left" style="opacity:1;fill:none;" d="M 0 10 L 22 10" stroke="#000000"/> 		<path id="_24A596AC-009A-43C0-BDDD-52A2EA03774Fframe9" oryx:anchors="top left" style="opacity:1; fill:none;" d="M 7 4 L 7 16" stroke="#000000"/> 	</g> 	 	<g id="_24A596AC-009A-43C0-BDDD-52A2EA03774FscriptTask" transform="scale(0.7,0.7) translate(8,8)" display="none"> 		<path oryx:anchors="top left" id="_24A596AC-009A-43C0-BDDD-52A2EA03774Fframe10" style="opacity:1;fill:none;" stroke="#000000" d="M6.402,0.5h14.5c0,0-5.833,2.833-5.833,5.583s4.417,6,4.417,9.167    s-4.167,5.083-4.167,5.083H0.235c0,0,5-2.667,5-5s-4.583-6.75-4.583-9.25S6.402,0.5,6.402,0.5z"/> 		<path oryx:anchors="top left" id="_24A596AC-009A-43C0-BDDD-52A2EA03774Fframe11" style="opacity:1;fill:none;stroke-width:1.5" d="M 3.5 4.5 L 13.5 4.5" stroke="#000000"/> 		<path oryx:anchors="top left" id="_24A596AC-009A-43C0-BDDD-52A2EA03774Fframe12" style="opacity:1;fill:none;stroke-width:1.5" d="M 3.8 8.5 L 13.8 8.5" stroke="#000000"/> 		<path oryx:anchors="top left" id="_24A596AC-009A-43C0-BDDD-52A2EA03774Fframe13" style="opacity:1;fill:none;stroke-width:1.5" d="M 6.3 12.5 L 16.3 12.5" stroke="#000000"/> 		<path oryx:anchors="top left" id="_24A596AC-009A-43C0-BDDD-52A2EA03774Fframe14" style="opacity:1;fill:none;stroke-width:1.5" d="M 6.5 16.5 L 16.5 16.5" stroke="#000000"/> 	</g> 	 	<g id="_24A596AC-009A-43C0-BDDD-52A2EA03774FuserTask" transform="scale(0.7,0.7) translate(8,8)" display="inherit"> 		<path id="_24A596AC-009A-43C0-BDDD-52A2EA03774Fframe15" oryx:anchors="top left" style="opacity:1;fill:#F4F6F7" stroke="#000000" d="M0.585,24.167h24.083v-7.833c0,0-2.333-3.917-7.083-5.167h-9.25    c-4.417,1.333-7.833,5.75-7.833,5.75L0.585,24.167z"/> 		<path id="_24A596AC-009A-43C0-BDDD-52A2EA03774Fframe16" oryx:anchors="top left" style="opacity:1;fill:none" d="M 6 20 L 6 24" stroke="#000000"/> 		<path id="_24A596AC-009A-43C0-BDDD-52A2EA03774Fframe17" oryx:anchors="top left" style="opacity:1;fill:none" d="M 20 20 L 20 24" stroke="#000000"/> 		<circle id="_24A596AC-009A-43C0-BDDD-52A2EA03774Fframe18" oryx:anchors="top left" fill="black" cx="13.002" cy="5.916" r="5.417" stroke="#000000"/> 		<path id="_24A596AC-009A-43C0-BDDD-52A2EA03774Fframe19" oryx:anchors="top left" style="opacity:1;fill:#F0EFF0;" stroke="#000000" d="M8.043,7.083c0,0,2.814-2.426,5.376-1.807s4.624-0.693,4.624-0.693    c0.25,1.688,0.042,3.75-1.458,5.584c0,0,1.083,0.75,1.083,1.5s0.125,1.875-1,3s-5.5,1.25-6.75,0S8.668,12.834,8.668,12    s0.583-1.25,1.25-1.917C8.835,9.5,7.419,7.708,8.043,7.083z"/> 	</g> 	 	<g id="_24A596AC-009A-43C0-BDDD-52A2EA03774FserviceTask" transform="scale(0.7,0.7) translate(8,8)" display="none"> 		<polygon oryx:anchors="top left" id="_24A596AC-009A-43C0-BDDD-52A2EA03774Fframe20" style="opacity:1;fill:#ffffff" stroke="#000000" points="15.392,5.064 17.954,2.502 20.347,4.895 17.786,7.455     18.729,9.732 22.353,9.732 22.353,13.115 18.731,13.115 17.788,15.392 20.351,17.955 17.958,20.347 15.397,17.786 13.12,18.729     13.12,22.353 9.737,22.353 9.737,18.731 7.46,17.788 4.897,20.35 2.506,17.958 5.066,15.397 4.124,13.12 0.5,13.12 0.5,9.737     4.121,9.737 5.065,7.461 2.503,4.898 4.895,2.506 7.455,5.066 9.732,4.125 9.732,0.5 13.116,0.5 13.116,4.121 "/> 		<circle oryx:anchors="top left" id="_24A596AC-009A-43C0-BDDD-52A2EA03774Fframe21" style="opacity:1;fill:none" stroke="#000000" cx="11.427" cy="11.426" r="3.714"/> 		<polygon oryx:anchors="top left" id="_24A596AC-009A-43C0-BDDD-52A2EA03774Fframe22" style="opacity:1;fill:#ffffff" stroke="#000000" points="21.392,11.064 23.954,8.502 26.347,10.895 23.786,13.455     24.729,15.732 28.353,15.732 28.353,19.115 24.731,19.115 23.788,21.392 26.351,23.955 23.958,26.347 21.397,23.786 19.12,24.729     19.12,28.353 15.737,28.353 15.737,24.731 13.46,23.788 10.897,26.35 8.506,23.958 11.066,21.397 10.124,19.12 6.5,19.12     6.5,15.737 10.121,15.737 11.065,13.461 8.503,10.898 10.895,8.506 13.455,11.066 15.732,10.125 15.732,6.5 19.116,6.5     19.116,10.121 "/> 		<circle oryx:anchors="top left" id="_24A596AC-009A-43C0-BDDD-52A2EA03774Fframe23" style="opacity:1;fill:none;" stroke="#000000" cx="17.427" cy="17.426" r="3.714"/> 	</g> 	 	<g id="_24A596AC-009A-43C0-BDDD-52A2EA03774FsendTask" display="none"> 		<path id="_24A596AC-009A-43C0-BDDD-52A2EA03774Fstframe24" oryx:anchors="left top" stroke="#FFFFFF" fill="black" stroke-width="1" d="M8,11 L8,21 L24,21 L24,11 L16,17z"/> 		<path id="_24A596AC-009A-43C0-BDDD-52A2EA03774Fstframe25" oryx:anchors="left top" stroke="#FFFFFF" fill="black" stroke-width="1" d="M7,10 L16,17 L25 10z"/> 	</g> 	 	<g id="_24A596AC-009A-43C0-BDDD-52A2EA03774FreceiveTask" display="none"> 		<path id="_24A596AC-009A-43C0-BDDD-52A2EA03774Fframe26" oryx:anchors="left top" stroke="#000000" fill="none" stroke-width="1" d="M8,11 L8,21 L24,21 L24,11z M8,11 L16,17 L24,11"/> 	</g> 	 	<g id="_24A596AC-009A-43C0-BDDD-52A2EA03774Fnone" display="none"/>  	<g id="_24A596AC-009A-43C0-BDDD-52A2EA03774Fsequential" display="none">         <path oryx:anchors="bottom" fill="none" stroke="#000000" stroke-width="2" d="M46,76h10M46,72h10 M46,68h10" id="_24A596AC-009A-43C0-BDDD-52A2EA03774F__24A596AC-009A-43C0-BDDD-52A2EA03774F_20"/>     </g>   </g></g><g class="children" style="overflow:hidden"/><g class="edge"/></g><g class="controls"><g class="dockers"/><g class="magnets" transform="translate(425, 75)"><g pointer-events="all" display="none" transform="translate(-7, 12)"><circle cx="8" cy="8" r="4" stroke="none" fill="red" fill-opacity="0.3"/></g><g pointer-events="all" display="none" transform="translate(-7, 32)"><circle cx="8" cy="8" r="4" stroke="none" fill="red" fill-opacity="0.3"/></g><g pointer-events="all" display="none" transform="translate(-7, 52)"><circle cx="8" cy="8" r="4" stroke="none" fill="red" fill-opacity="0.3"/></g><g pointer-events="all" display="none" transform="translate(17, 71)"><circle cx="8" cy="8" r="4" stroke="none" fill="red" fill-opacity="0.3"/></g><g pointer-events="all" display="none" transform="translate(42, 71)"><circle cx="8" cy="8" r="4" stroke="none" fill="red" fill-opacity="0.3"/></g><g pointer-events="all" display="none" transform="translate(67, 71)"><circle cx="8" cy="8" r="4" stroke="none" fill="red" fill-opacity="0.3"/></g><g pointer-events="all" display="none" transform="translate(91, 12)"><circle cx="8" cy="8" r="4" stroke="none" fill="red" fill-opacity="0.3"/></g><g pointer-events="all" display="none" transform="translate(91, 32)"><circle cx="8" cy="8" r="4" stroke="none" fill="red" fill-opacity="0.3"/></g><g pointer-events="all" display="none" transform="translate(91, 52)"><circle cx="8" cy="8" r="4" stroke="none" fill="red" fill-opacity="0.3"/></g><g pointer-events="all" display="none" transform="translate(17, -7)"><circle cx="8" cy="8" r="4" stroke="none" fill="red" fill-opacity="0.3"/></g><g pointer-events="all" display="none" transform="translate(42, -7)"><circle cx="8" cy="8" r="4" stroke="none" fill="red" fill-opacity="0.3"/></g><g pointer-events="all" display="none" transform="translate(67, -7)"><circle cx="8" cy="8" r="4" stroke="none" fill="red" fill-opacity="0.3"/></g><g pointer-events="all" display="none" transform="translate(42, 32)"><circle cx="8" cy="8" r="4" stroke="none" fill="red" fill-opacity="0.3"/></g></g></g></g><g id="_25F77ADA-2294-4B87-80EF-C1A087D67CE7" bpmn2nodeid="_C616D825-F7A9-400C-A6BA-5BD46F81FF82"><g class="stencils" transform="translate(425, 240)"><g class="me"><g pointer-events="fill" oryx:minimumSize="50 40" id="_25F77ADA-2294-4B87-80EF-C1A087D67CE7">   	<defs id="_25F77ADA-2294-4B87-80EF-C1A087D67CE7__25F77ADA-2294-4B87-80EF-C1A087D67CE7_17"> 		<radialGradient id="_25F77ADA-2294-4B87-80EF-C1A087D67CE7background" cx="10%" cy="10%" r="100%" fx="10%" fy="10%"> 			<stop offset="0%" stop-color="#ffffff" stop-opacity="1" id="_25F77ADA-2294-4B87-80EF-C1A087D67CE7__25F77ADA-2294-4B87-80EF-C1A087D67CE7_18"/> 			<stop id="_25F77ADA-2294-4B87-80EF-C1A087D67CE7fill_el" offset="100%" stop-color="#fafad2" stop-opacity="1"/> 		</radialGradient> 		<radialGradient id="_25F77ADA-2294-4B87-80EF-C1A087D67CE7borderbackground" cx="10%" cy="10%" r="100%" fx="10%" fy="10%"> 			<stop offset="0%" stop-color="#ffffff" stop-opacity="1" id="_25F77ADA-2294-4B87-80EF-C1A087D67CE7__25F77ADA-2294-4B87-80EF-C1A087D67CE7_19"/> 			<stop id="_25F77ADA-2294-4B87-80EF-C1A087D67CE7fill_border" offset="100%" stop-color="#000000" stop-opacity="1" stroke="#000000"/> 		</radialGradient> 	</defs> 	 	<rect id="_25F77ADA-2294-4B87-80EF-C1A087D67CE7text_frame" oryx:anchors="bottom top right left" x="1" y="1" width="94" height="79" rx="10" ry="10" stroke="none" stroke-width="0" fill="none"/> 	<rect id="_25F77ADA-2294-4B87-80EF-C1A087D67CE7bg_frame" oryx:resize="vertical horizontal" x="0" y="0" width="100" height="80" rx="10" ry="10" stroke="#000000" stroke-width="1" fill="url(#_25F77ADA-2294-4B87-80EF-C1A087D67CE7background) #ffffcc"/> 		<text font-size="12" id="_25F77ADA-2294-4B87-80EF-C1A087D67CE7text_name" x="50" y="40" oryx:align="middle center" oryx:fittoelem="text_frame" stroke="black" text-anchor="middle" stroke-width="0pt" letter-spacing="-0.01px" fill="#000000" transform="rotate(0 50 40)" visibility="inherit" oryx:fontSize="12"><tspan x="50" y="40" dy="-7">Employee </tspan><tspan x="50" y="40" dy="5">Additional </tspan><tspan x="50" y="40" dy="17">Information</tspan></text>     <g id="_25F77ADA-2294-4B87-80EF-C1A087D67CE7manualTask" transform="scale(0.7,0.7) translate(8,8)" display="none">     	<path oryx:anchors="top left" id="_25F77ADA-2294-4B87-80EF-C1A087D67CE7frame" style="opacity:1;fill:none;fill-opacity:1;stroke-width:1" d="M0.5,3.751l4.083-3.25c0,0,11.166,0.083,12.083,0.083s-2.417,2.917-1.5,2.917     s11.667,0,12.584,0c1.166,1.708-0.168,3.167-0.834,3.667s0.875,1.917-1,4.417c-0.75,0.25,0.75,1.875-1.333,3.333     c-1.167,0.583,0.583,1.542-1.25,2.833c-1.167,0-20.833,0.083-20.833,0.083l-2-1.333V3.751z" stroke="#000000"/> 		<path id="_25F77ADA-2294-4B87-80EF-C1A087D67CE7frame2" oryx:anchors="top left" style="opacity:1;fill:none;stroke-width:2" d="M 13.5 7 L 27 7" stroke="#000000"/> 		<path id="_25F77ADA-2294-4B87-80EF-C1A087D67CE7frame3" oryx:anchors="top left" style="opacity:1;fill:none;stroke-width:2" d="M 13.5 11 L 26 11" stroke="#000000"/> 		<path id="_25F77ADA-2294-4B87-80EF-C1A087D67CE7frame4" oryx:anchors="top left" style="opacity:1;fill:none;stroke-width:1.5" d="M 14 14.5 L 25 14.5" stroke="#000000"/> 		<path id="_25F77ADA-2294-4B87-80EF-C1A087D67CE7frame5" oryx:anchors="top left" style="opacity:1;fill:none;stroke-width:1.5" d="M 8.2 3.1 L 15 3.1" stroke="#000000"/> 	</g> 	 	<g id="_25F77ADA-2294-4B87-80EF-C1A087D67CE7businessRuleTask" transform="scale(0.7,0.7) translate(8,8)" display="none"> 		<rect id="_25F77ADA-2294-4B87-80EF-C1A087D67CE7frame6" oryx:anchors="top left" x="0" y="0" width="22" height="4" style="opacity:1;fill:#B3B1B3;fill-opacity:1;" stroke="#000000"/> 		<rect id="_25F77ADA-2294-4B87-80EF-C1A087D67CE7frame7" oryx:anchors="top left" x="0" y="4" style="opacity:1;fill:none;" width="22" height="12" stroke="#000000"/> 		<path id="_25F77ADA-2294-4B87-80EF-C1A087D67CE7frame8" oryx:anchors="top left" style="opacity:1;fill:none;" d="M 0 10 L 22 10" stroke="#000000"/> 		<path id="_25F77ADA-2294-4B87-80EF-C1A087D67CE7frame9" oryx:anchors="top left" style="opacity:1; fill:none;" d="M 7 4 L 7 16" stroke="#000000"/> 	</g> 	 	<g id="_25F77ADA-2294-4B87-80EF-C1A087D67CE7scriptTask" transform="scale(0.7,0.7) translate(8,8)" display="none"> 		<path oryx:anchors="top left" id="_25F77ADA-2294-4B87-80EF-C1A087D67CE7frame10" style="opacity:1;fill:none;" stroke="#000000" d="M6.402,0.5h14.5c0,0-5.833,2.833-5.833,5.583s4.417,6,4.417,9.167    s-4.167,5.083-4.167,5.083H0.235c0,0,5-2.667,5-5s-4.583-6.75-4.583-9.25S6.402,0.5,6.402,0.5z"/> 		<path oryx:anchors="top left" id="_25F77ADA-2294-4B87-80EF-C1A087D67CE7frame11" style="opacity:1;fill:none;stroke-width:1.5" d="M 3.5 4.5 L 13.5 4.5" stroke="#000000"/> 		<path oryx:anchors="top left" id="_25F77ADA-2294-4B87-80EF-C1A087D67CE7frame12" style="opacity:1;fill:none;stroke-width:1.5" d="M 3.8 8.5 L 13.8 8.5" stroke="#000000"/> 		<path oryx:anchors="top left" id="_25F77ADA-2294-4B87-80EF-C1A087D67CE7frame13" style="opacity:1;fill:none;stroke-width:1.5" d="M 6.3 12.5 L 16.3 12.5" stroke="#000000"/> 		<path oryx:anchors="top left" id="_25F77ADA-2294-4B87-80EF-C1A087D67CE7frame14" style="opacity:1;fill:none;stroke-width:1.5" d="M 6.5 16.5 L 16.5 16.5" stroke="#000000"/> 	</g> 	 	<g id="_25F77ADA-2294-4B87-80EF-C1A087D67CE7userTask" transform="scale(0.7,0.7) translate(8,8)" display="inherit"> 		<path id="_25F77ADA-2294-4B87-80EF-C1A087D67CE7frame15" oryx:anchors="top left" style="opacity:1;fill:#F4F6F7" stroke="#000000" d="M0.585,24.167h24.083v-7.833c0,0-2.333-3.917-7.083-5.167h-9.25    c-4.417,1.333-7.833,5.75-7.833,5.75L0.585,24.167z"/> 		<path id="_25F77ADA-2294-4B87-80EF-C1A087D67CE7frame16" oryx:anchors="top left" style="opacity:1;fill:none" d="M 6 20 L 6 24" stroke="#000000"/> 		<path id="_25F77ADA-2294-4B87-80EF-C1A087D67CE7frame17" oryx:anchors="top left" style="opacity:1;fill:none" d="M 20 20 L 20 24" stroke="#000000"/> 		<circle id="_25F77ADA-2294-4B87-80EF-C1A087D67CE7frame18" oryx:anchors="top left" fill="black" cx="13.002" cy="5.916" r="5.417" stroke="#000000"/> 		<path id="_25F77ADA-2294-4B87-80EF-C1A087D67CE7frame19" oryx:anchors="top left" style="opacity:1;fill:#F0EFF0;" stroke="#000000" d="M8.043,7.083c0,0,2.814-2.426,5.376-1.807s4.624-0.693,4.624-0.693    c0.25,1.688,0.042,3.75-1.458,5.584c0,0,1.083,0.75,1.083,1.5s0.125,1.875-1,3s-5.5,1.25-6.75,0S8.668,12.834,8.668,12    s0.583-1.25,1.25-1.917C8.835,9.5,7.419,7.708,8.043,7.083z"/> 	</g> 	 	<g id="_25F77ADA-2294-4B87-80EF-C1A087D67CE7serviceTask" transform="scale(0.7,0.7) translate(8,8)" display="none"> 		<polygon oryx:anchors="top left" id="_25F77ADA-2294-4B87-80EF-C1A087D67CE7frame20" style="opacity:1;fill:#ffffff" stroke="#000000" points="15.392,5.064 17.954,2.502 20.347,4.895 17.786,7.455     18.729,9.732 22.353,9.732 22.353,13.115 18.731,13.115 17.788,15.392 20.351,17.955 17.958,20.347 15.397,17.786 13.12,18.729     13.12,22.353 9.737,22.353 9.737,18.731 7.46,17.788 4.897,20.35 2.506,17.958 5.066,15.397 4.124,13.12 0.5,13.12 0.5,9.737     4.121,9.737 5.065,7.461 2.503,4.898 4.895,2.506 7.455,5.066 9.732,4.125 9.732,0.5 13.116,0.5 13.116,4.121 "/> 		<circle oryx:anchors="top left" id="_25F77ADA-2294-4B87-80EF-C1A087D67CE7frame21" style="opacity:1;fill:none" stroke="#000000" cx="11.427" cy="11.426" r="3.714"/> 		<polygon oryx:anchors="top left" id="_25F77ADA-2294-4B87-80EF-C1A087D67CE7frame22" style="opacity:1;fill:#ffffff" stroke="#000000" points="21.392,11.064 23.954,8.502 26.347,10.895 23.786,13.455     24.729,15.732 28.353,15.732 28.353,19.115 24.731,19.115 23.788,21.392 26.351,23.955 23.958,26.347 21.397,23.786 19.12,24.729     19.12,28.353 15.737,28.353 15.737,24.731 13.46,23.788 10.897,26.35 8.506,23.958 11.066,21.397 10.124,19.12 6.5,19.12     6.5,15.737 10.121,15.737 11.065,13.461 8.503,10.898 10.895,8.506 13.455,11.066 15.732,10.125 15.732,6.5 19.116,6.5     19.116,10.121 "/> 		<circle oryx:anchors="top left" id="_25F77ADA-2294-4B87-80EF-C1A087D67CE7frame23" style="opacity:1;fill:none;" stroke="#000000" cx="17.427" cy="17.426" r="3.714"/> 	</g> 	 	<g id="_25F77ADA-2294-4B87-80EF-C1A087D67CE7sendTask" display="none"> 		<path id="_25F77ADA-2294-4B87-80EF-C1A087D67CE7stframe24" oryx:anchors="left top" stroke="#FFFFFF" fill="black" stroke-width="1" d="M8,11 L8,21 L24,21 L24,11 L16,17z"/> 		<path id="_25F77ADA-2294-4B87-80EF-C1A087D67CE7stframe25" oryx:anchors="left top" stroke="#FFFFFF" fill="black" stroke-width="1" d="M7,10 L16,17 L25 10z"/> 	</g> 	 	<g id="_25F77ADA-2294-4B87-80EF-C1A087D67CE7receiveTask" display="none"> 		<path id="_25F77ADA-2294-4B87-80EF-C1A087D67CE7frame26" oryx:anchors="left top" stroke="#000000" fill="none" stroke-width="1" d="M8,11 L8,21 L24,21 L24,11z M8,11 L16,17 L24,11"/> 	</g> 	 	<g id="_25F77ADA-2294-4B87-80EF-C1A087D67CE7none" display="none"/>  	<g id="_25F77ADA-2294-4B87-80EF-C1A087D67CE7sequential" display="none">         <path oryx:anchors="bottom" fill="none" stroke="#000000" stroke-width="2" d="M46,76h10M46,72h10 M46,68h10" id="_25F77ADA-2294-4B87-80EF-C1A087D67CE7__25F77ADA-2294-4B87-80EF-C1A087D67CE7_20"/>     </g>   </g></g><g class="children" style="overflow:hidden"/><g class="edge"/></g><g class="controls"><g class="dockers"/><g class="magnets" transform="translate(425, 240)"><g pointer-events="all" display="none" transform="translate(-7, 12)"><circle cx="8" cy="8" r="4" stroke="none" fill="red" fill-opacity="0.3"/></g><g pointer-events="all" display="none" transform="translate(-7, 32)"><circle cx="8" cy="8" r="4" stroke="none" fill="red" fill-opacity="0.3"/></g><g pointer-events="all" display="none" transform="translate(-7, 52)"><circle cx="8" cy="8" r="4" stroke="none" fill="red" fill-opacity="0.3"/></g><g pointer-events="all" display="none" transform="translate(17, 71)"><circle cx="8" cy="8" r="4" stroke="none" fill="red" fill-opacity="0.3"/></g><g pointer-events="all" display="none" transform="translate(42, 71)"><circle cx="8" cy="8" r="4" stroke="none" fill="red" fill-opacity="0.3"/></g><g pointer-events="all" display="none" transform="translate(67, 71)"><circle cx="8" cy="8" r="4" stroke="none" fill="red" fill-opacity="0.3"/></g><g pointer-events="all" display="none" transform="translate(91, 12)"><circle cx="8" cy="8" r="4" stroke="none" fill="red" fill-opacity="0.3"/></g><g pointer-events="all" display="none" transform="translate(91, 32)"><circle cx="8" cy="8" r="4" stroke="none" fill="red" fill-opacity="0.3"/></g><g pointer-events="all" display="none" transform="translate(91, 52)"><circle cx="8" cy="8" r="4" stroke="none" fill="red" fill-opacity="0.3"/></g><g pointer-events="all" display="none" transform="translate(17, -7)"><circle cx="8" cy="8" r="4" stroke="none" fill="red" fill-opacity="0.3"/></g><g pointer-events="all" display="none" transform="translate(42, -7)"><circle cx="8" cy="8" r="4" stroke="none" fill="red" fill-opacity="0.3"/></g><g pointer-events="all" display="none" transform="translate(67, -7)"><circle cx="8" cy="8" r="4" stroke="none" fill="red" fill-opacity="0.3"/></g><g pointer-events="all" display="none" transform="translate(42, 32)"><circle cx="8" cy="8" r="4" stroke="none" fill="red" fill-opacity="0.3"/></g></g></g></g></g><g class="edge"><g id="_EED0BA32-20E7-4D21-81EB-5DC6D630AAED" bpmn2nodeid="_1B50F2D2-CDE3-42D0-9AEE-8C3E14BA7EDE"><g class="stencils"><g class="me"><g pointer-events="painted" bpmn2nodeid="_1B50F2D2-CDE3-42D0-9AEE-8C3E14BA7EDE"><path id="_EED0BA32-20E7-4D21-81EB-5DC6D630AAED_1" d="M150.609375 180L194.15625 180 " stroke="#000000" fill="none" stroke-width="2" stroke-linecap="round" stroke-linejoin="round" marker-start="url(#_EED0BA32-20E7-4D21-81EB-5DC6D630AAEDstart)" marker-end="url(#_EED0BA32-20E7-4D21-81EB-5DC6D630AAEDend)"/></g><text id="_EED0BA32-20E7-4D21-81EB-5DC6D630AAEDtext_name" font-size="12" x="164.609375" y="166" oryx:edgePosition="startTop" stroke-width="0pt" letter-spacing="-0.01px" fill="#000000" text-anchor="start" transform="rotate(360 150.609375 180)" visibility="inherit" oryx:fontSize="12"/></g><g class="children" style="overflow:hidden"/><g class="edge"/></g><g class="controls"><g class="dockers"/><g class="magnets"/></g></g><g id="_D3D71428-88B4-4467-BE08-35D5D4FA0946" bpmn2nodeid="_ED12945F-78B0-43C0-BE14-07D6F5463230"><g class="stencils"><g class="me"><g pointer-events="painted" bpmn2nodeid="_ED12945F-78B0-43C0-BE14-07D6F5463230"><path id="_D3D71428-88B4-4467-BE08-35D5D4FA0946_1" d="M295.62889687999245 180.2191727137662L339.64844687000755 180.4097335362338 " stroke="#000000" fill="none" stroke-width="2" stroke-linecap="round" stroke-linejoin="round" marker-start="url(#_D3D71428-88B4-4467-BE08-35D5D4FA0946start)" marker-end="url(#_D3D71428-88B4-4467-BE08-35D5D4FA0946end)"/></g><text id="_D3D71428-88B4-4467-BE08-35D5D4FA0946text_name" font-size="12" x="309.62889687999245" y="166.2191727137662" oryx:edgePosition="startTop" stroke-width="0pt" letter-spacing="-0.01px" fill="#000000" text-anchor="start" transform="rotate(0.24803212815652387 295.62889687999245 180.2191727137662)" visibility="inherit" oryx:fontSize="12"/></g><g class="children" style="overflow:hidden"/><g class="edge"/></g><g class="controls"><g class="dockers"/><g class="magnets"/></g></g><g id="_FD441A57-C853-45F4-A319-DAF67901AABF" bpmn2nodeid="_53BDA1DD-321C-4DAD-9730-DAE552D65BC7"><g class="stencils"><g class="me"><g pointer-events="painted" bpmn2nodeid="_53BDA1DD-321C-4DAD-9730-DAE552D65BC7"><path id="_FD441A57-C853-45F4-A319-DAF67901AABF_1" d="M360.5 159.03125L360.5 115 L424.80078125 115 " stroke="#000000" fill="none" stroke-width="2" stroke-linecap="round" stroke-linejoin="round" marker-start="url(#_FD441A57-C853-45F4-A319-DAF67901AABFstart)" marker-end="url(#_FD441A57-C853-45F4-A319-DAF67901AABFend)"/></g><text id="_FD441A57-C853-45F4-A319-DAF67901AABFtext_name" font-size="12" x="374.5" y="145.03125" oryx:edgePosition="startTop" stroke-width="0pt" letter-spacing="-0.01px" fill="#000000" text-anchor="start" transform="rotate(270 360.5 159.03125)" visibility="inherit" oryx:fontSize="12"/></g><g class="children" style="overflow:hidden"/><g class="edge"/></g><g class="controls"><g class="dockers"/><g class="magnets"/></g></g><g id="_0F255164-B563-4703-AF27-1B55CDAC9908" bpmn2nodeid="_67265845-B170-40BF-9268-242284CFEE50"><g class="stencils"><g class="me"><g pointer-events="painted" bpmn2nodeid="_67265845-B170-40BF-9268-242284CFEE50"><path id="_0F255164-B563-4703-AF27-1B55CDAC9908_1" d="M360.5 200.15625L360.5 280 L424.80078125 280 " stroke="#000000" fill="none" stroke-width="2" stroke-linecap="round" stroke-linejoin="round" marker-start="url(#_0F255164-B563-4703-AF27-1B55CDAC9908start)" marker-end="url(#_0F255164-B563-4703-AF27-1B55CDAC9908end)"/></g><text id="_0F255164-B563-4703-AF27-1B55CDAC9908text_name" font-size="12" x="346.5" y="186.15625" oryx:edgePosition="startTop" stroke-width="0pt" letter-spacing="-0.01px" fill="#000000" text-anchor="end" transform="rotate(-90 360.5 200.15625)" visibility="inherit" oryx:fontSize="12"/></g><g class="children" style="overflow:hidden"/><g class="edge"/></g><g class="controls"><g class="dockers"><g visibility="visible"><g pointer-events="all" transform="translate(352.5, 192.15625)"><circle cx="8" cy="8" r="8" stroke="none" fill="none"/><circle cx="8" cy="8" r="3" stroke="black" fill="#00FF00" stroke-width="1"/></g><g pointer-events="none" transform="translate(360.5, 180.5)"><circle cx="0" cy="0" r="3" fill="red" fill-opacity="0.4"/></g></g><g visibility="visible"><g pointer-events="all" transform="translate(416.80078125, 271.99999999999994)"><circle cx="8" cy="8" r="8" stroke="none" fill="none"/><circle cx="8" cy="8" r="3" stroke="black" fill="#00FF00" stroke-width="1"/></g><g pointer-events="none" transform="translate(475, 280)"><circle cx="0" cy="0" r="3" fill="red" fill-opacity="0.4"/></g></g></g><g class="magnets"/></g></g></g><text id="_F2DB2159-F6EC-4166-9D2A-BCB2E20C97D0" style="stroke-width:1;fill:rgb(177,194,214);font-family:arial;font-weight:bold" font-size="12" onclick="ORYX.Plugins.CanvasTitle.openTextualAnalysis()" onmouseover="ORYX.Plugins.CanvasTitle.addToolTip('_F2DB2159-F6EC-4166-9D2A-BCB2E20C97D0')" transform="translate(10, 20)">Employee Onboarding 2 v.1.0 (com.employeepoc.employee_onboarding.EmployeeOnboarding2)</text></g></g></svg>